HIERARCHY
ROOT Hips
{
    OFFSET   0.000000   0.000000   0.000000
    CHANNELS 6 Xposition Yposition Zposition Zrotation Xrotation Yrotation
    JOINT Chest
    {
        OFFSET   0.000000   8.007240   0.000000
        CHANNELS 3 Zrotation Xrotation Yrotation
        JOINT Chest2
        {
            OFFSET   0.000000  22.077100   0.000000
            CHANNELS 3 Zrotation Xrotation Yrotation
            JOINT Neck
            {
                OFFSET   0.000000  23.254800   0.000000
                CHANNELS 3 Zrotation Xrotation Yrotation
                JOINT Head
                {
                    OFFSET   0.000000  14.370000   1.956600
                    CHANNELS 3 Zrotation Xrotation Yrotation
                    End Site
                    {
                        OFFSET   0.000000  19.566000   0.000000
                    }
                }
            }
            JOINT LeftCollar
            {
                OFFSET   3.911900  19.017000  -0.467064
                CHANNELS 3 Zrotation Xrotation Yrotation
                JOINT LeftShoulder
                {
                    OFFSET  10.383700   0.000000   0.000000
                    CHANNELS 3 Zrotation Xrotation Yrotation
                    JOINT LeftElbow
                    {
                        OFFSET  26.662100   0.001476   0.000517
                        CHANNELS 3 Zrotation Xrotation Yrotation
                        JOINT LeftWrist
                        {
                            OFFSET  28.869000  -0.000025  -0.000106
                            CHANNELS 3 Zrotation Xrotation Yrotation
                            JOINT LeftFinger0
                            {
                                OFFSET   2.044660  -2.323460   3.252850
                                CHANNELS 3 Zrotation Xrotation Yrotation
                                JOINT LeftFinger01
                                {
                                    OFFSET   3.088130   0.000000   0.000000
                                    CHANNELS 3 Zrotation Xrotation Yrotation
                                    JOINT LeftFinger02
                                    {
                                        OFFSET   2.639460   0.000000   0.000000
                                        CHANNELS 3 Zrotation Xrotation Yrotation
                                        End Site
                                        {
                                            OFFSET   2.582190   0.000000   0.000000
                                        }
                                    }
                                }
                            }
                            JOINT LeftFinger1
                            {
                                OFFSET   8.364480   0.000000   3.252850
                                CHANNELS 3 Zrotation Xrotation Yrotation
                                JOINT LeftFinger11
                                {
                                    OFFSET   4.646930   0.000000   0.000000
                                    CHANNELS 3 Zrotation Xrotation Yrotation
                                    JOINT LeftFinger12
                                    {
                                        OFFSET   2.323460   0.000000   0.000000
                                        CHANNELS 3 Zrotation Xrotation Yrotation
                                        End Site
                                        {
                                            OFFSET   2.273050   0.000000   0.000000
                                        }
                                    }
                                }
                            }
                            JOINT LeftFinger2
                            {
                                OFFSET   8.364490   0.000015   1.078090
                                CHANNELS 3 Zrotation Xrotation Yrotation
                                JOINT LeftFinger21
                                {
                                    OFFSET   5.111620   0.000000   0.000000
                                    CHANNELS 3 Zrotation Xrotation Yrotation
                                    JOINT LeftFinger22
                                    {
                                        OFFSET   2.788160   0.000016   0.000000
                                        CHANNELS 3 Zrotation Xrotation Yrotation
                                        End Site
                                        {
                                            OFFSET   2.727660   0.000000   0.000000
                                        }
                                    }
                                }
                            }
                            JOINT LeftFinger3
                            {
                                OFFSET   7.899780   0.000017  -1.078090
                                CHANNELS 3 Zrotation Xrotation Yrotation
                                JOINT LeftFinger31
                                {
                                    OFFSET   4.646930   0.000000   0.000000
                                    CHANNELS 3 Zrotation Xrotation Yrotation
                                    JOINT LeftFinger32
                                    {
                                        OFFSET   2.323470   0.000000   0.000000
                                        CHANNELS 3 Zrotation Xrotation Yrotation
                                        End Site
                                        {
                                            OFFSET   2.273050   0.000000   0.000000
                                        }
                                    }
                                }
                            }
                            JOINT LeftFinger4
                            {
                                OFFSET   7.435090   0.000000  -3.252850
                                CHANNELS 3 Zrotation Xrotation Yrotation
                                JOINT LeftFinger41
                                {
                                    OFFSET   3.717550   0.000000   0.000000
                                    CHANNELS 3 Zrotation Xrotation Yrotation
                                    JOINT LeftFinger42
                                    {
                                        OFFSET   1.858770   0.000000   0.000000
                                        CHANNELS 3 Zrotation Xrotation Yrotation
                                        End Site
                                        {
                                            OFFSET   1.818440   0.000000   0.000000
                                        }
                                    }
                                }
                            }
                        }
                    }
                }
            }
            JOINT RightCollar
            {
                OFFSET  -3.911900  19.017000  -0.467063
                CHANNELS 3 Zrotation Xrotation Yrotation
                JOINT RightShoulder
                {
                    OFFSET -10.383700   0.000019   0.000000
                    CHANNELS 3 Zrotation Xrotation Yrotation
                    JOINT RightElbow
                    {
                        OFFSET -26.662100   0.001175   0.000102
                        CHANNELS 3 Zrotation Xrotation Yrotation
                        JOINT RightWrist
                        {
                            OFFSET -28.869000   0.000016  -0.000079
                            CHANNELS 3 Zrotation Xrotation Yrotation
                            JOINT RightFinger0
                            {
                                OFFSET  -2.044660  -2.323490   3.252850
                                CHANNELS 3 Zrotation Xrotation Yrotation
                                JOINT RightFinger01
                                {
                                    OFFSET  -3.088140   0.000000   0.000000
                                    CHANNELS 3 Zrotation Xrotation Yrotation
                                    JOINT RightFinger02
                                    {
                                        OFFSET  -2.639460   0.000000   0.000000
                                        CHANNELS 3 Zrotation Xrotation Yrotation
                                        End Site
                                        {
                                            OFFSET  -2.582190   0.000000   0.000000
                                        }
                                    }
                                }
                            }
                            JOINT RightFinger1
                            {
                                OFFSET  -8.364480   0.000000   3.252850
                                CHANNELS 3 Zrotation Xrotation Yrotation
                                JOINT RightFinger11
                                {
                                    OFFSET  -4.646930   0.000000   0.000000
                                    CHANNELS 3 Zrotation Xrotation Yrotation
                                    JOINT RightFinger12
                                    {
                                        OFFSET  -2.323470   0.000000   0.000000
                                        CHANNELS 3 Zrotation Xrotation Yrotation
                                        End Site
                                        {
                                            OFFSET  -2.273050   0.000000   0.000000
                                        }
                                    }
                                }
                            }
                            JOINT RightFinger2
                            {
                                OFFSET  -8.364480   0.000000   1.078090
                                CHANNELS 3 Zrotation Xrotation Yrotation
                                JOINT RightFinger21
                                {
                                    OFFSET  -5.111620   0.000000   0.000000
                                    CHANNELS 3 Zrotation Xrotation Yrotation
                                    JOINT RightFinger22
                                    {
                                        OFFSET  -2.788160   0.000000   0.000000
                                        CHANNELS 3 Zrotation Xrotation Yrotation
                                        End Site
                                        {
                                            OFFSET  -2.727660   0.000000   0.000000
                                        }
                                    }
                                }
                            }
                            JOINT RightFinger3
                            {
                                OFFSET  -7.899780   0.000000  -1.078090
                                CHANNELS 3 Zrotation Xrotation Yrotation
                                JOINT RightFinger31
                                {
                                    OFFSET  -4.646930   0.000000   0.000000
                                    CHANNELS 3 Zrotation Xrotation Yrotation
                                    JOINT RightFinger32
                                    {
                                        OFFSET  -2.323470   0.000000   0.000000
                                        CHANNELS 3 Zrotation Xrotation Yrotation
                                        End Site
                                        {
                                            OFFSET  -2.273050   0.000000   0.000000
                                        }
                                    }
                                }
                            }
                            JOINT RightFinger4
                            {
                                OFFSET  -7.435090   0.000000  -3.252850
                                CHANNELS 3 Zrotation Xrotation Yrotation
                                JOINT RightFinger41
                                {
                                    OFFSET  -3.717550   0.000000   0.000000
                                    CHANNELS 3 Zrotation Xrotation Yrotation
                                    JOINT RightFinger42
                                    {
                                        OFFSET  -1.858770   0.000000   0.000000
                                        CHANNELS 3 Zrotation Xrotation Yrotation
                                        End Site
                                        {
                                            OFFSET  -1.818440   0.000000   0.000000
                                        }
                                    }
                                }
                            }
                        }
                    }
                }
            }
        }
    }
    JOINT LeftHip
    {
        OFFSET   9.783040   0.000000   0.000000
        CHANNELS 3 Zrotation Xrotation Yrotation
        JOINT LeftKnee
        {
            OFFSET   0.000032 -41.789100  -0.002222
            CHANNELS 3 Zrotation Xrotation Yrotation
            JOINT LeftAnkle
            {
                OFFSET   0.000087 -41.133200  -0.000135
                CHANNELS 3 Zrotation Xrotation Yrotation
                JOINT LeftToe
                {
                    OFFSET   0.000000  -6.358960  14.674500
                    CHANNELS 3 Zrotation Xrotation Yrotation
                    End Site
                    {
                        OFFSET   0.000000   0.000000   3.913200
                    }
                }
            }
        }
    }
    JOINT RightHip
    {
        OFFSET  -9.783040   0.000000   0.000000
        CHANNELS 3 Zrotation Xrotation Yrotation
        JOINT RightKnee
        {
            OFFSET   0.000047 -41.789100  -0.000896
            CHANNELS 3 Zrotation Xrotation Yrotation
            JOINT RightAnkle
            {
                OFFSET  -0.000117 -41.133300  -0.000248
                CHANNELS 3 Zrotation Xrotation Yrotation
                JOINT RightToe
                {
                    OFFSET   0.000000  -6.358970  14.674500
                    CHANNELS 3 Zrotation Xrotation Yrotation
                    End Site
                    {
                        OFFSET   0.000000   0.000000   3.913200
                    }
                }
            }
        }
    }
}
MOTION
Frames: 4
Frame Time:   0.016667
  0.168517  89.547600  -0.164440  -3.075120 -11.112100   1.828880   1.688820   7.234230   0.391497   3.368180  14.476800   0.572826  -3.149150   1.504880   0.082873  -5.183320   3.023930   7.818660 -10.030900   0.169613  -1.745170 -59.312300  11.446400 -39.838300  20.395900  13.405300 -48.017400  20.434400  40.060700   2.831870  38.940500  20.612800 -59.228500 -10.520700   0.000664   0.003264  -0.260347  -0.006376   0.004953  -9.986720   1.934890 -10.872600  -8.321830   0.004981   0.001902  -5.825280   0.002427   0.005324  -9.295050   1.116120  -6.816160  -9.361590   0.005349   0.011189  -6.234810   0.005834   0.000639 -11.398800   1.366590  -6.770630 -11.479700  -0.000744   0.009071  -7.645490  -0.006139   0.001148 -15.657300   1.877850  -6.685450 -23.650500   0.000903   0.001520 -15.751200  -0.002487   0.006766   6.858290  -2.438770  15.101800  51.890000   8.937380  36.587500 -22.468500  11.791700  47.225100 -42.421900  34.763400  27.243300 -44.497500  31.720000  69.373500  12.380700  -0.001241  -0.001857   1.190330  -0.003170  -0.002532  15.848400   3.316010  11.529500  13.243400   0.000441  -0.003979   9.270410  -0.004247  -0.003774  13.962900   0.925744   3.736170  13.995900   0.001065  -0.003570   9.321270  -0.004763  -0.005632  16.770000  -1.739650  -5.731810  16.859800   0.006809  -0.004686  11.228600   0.001803  -0.004301  17.196200  -5.505180 -17.197300  27.047600   0.001813  -0.000659  18.013700   0.001652   0.001820   3.371510  14.779300   3.974680   0.937299   0.001712   9.397190  -2.149170  -2.820130   1.633710   0.000000   0.000000   0.000000   2.734340   9.845540  -5.912750   0.922762   5.235750  -8.258400  -2.757270  -3.712010  -2.474990  -0.000000   0.000000   0.000000
  0.195734  89.541900  -0.140746  -3.088810 -11.091800   1.769180   1.721370   7.293040   0.364648   3.437900  14.593700   0.512259  -3.163070   1.391220   0.076945  -5.206680   2.795110   7.850330 -10.198400  -0.046182  -1.587370 -59.509100  12.512000 -39.428200  19.448300  13.761100 -45.951800  20.584800  40.129800   3.027920  38.825200  20.287800 -58.967300 -10.848900   0.001054   0.003425  -0.424424  -0.006381   0.005104 -10.015000   1.919070 -10.771400  -8.342160   0.004952   0.001814  -5.839510   0.002530   0.005274  -9.260630   1.085490  -6.676140  -9.326350   0.005358   0.011204  -6.211340   0.005778   0.000686 -11.319600   1.325170  -6.634060 -11.396700  -0.000582   0.009216  -7.590250  -0.006151   0.001132 -15.636300   1.835820  -6.541490 -23.619000   0.001023   0.001710 -15.730200  -0.002361   0.006779   7.008420  -2.628670  15.307500  52.359600   9.659280  36.353300 -21.099300  12.662400  44.678100 -42.644800  34.096500  27.477400 -44.380300  31.595600  69.262100  12.672500  -0.001321  -0.001797   1.336220  -0.003231  -0.002514  16.000300   3.292380  11.351300  13.363800   0.000350  -0.003978   9.354700  -0.004398  -0.003733  14.027600   0.886858   3.571430  14.059600   0.001126  -0.003507   9.363690  -0.004847  -0.005601  16.788200  -1.804790  -5.927810  16.883500   0.006730  -0.004660  11.244300   0.001719  -0.004256  17.076000  -5.563110 -17.482100  26.902700   0.001931  -0.000624  17.917200   0.001791   0.001884   3.356860  14.794000   3.965080   0.931287   0.000680   9.425060  -2.134820  -2.844940   1.681190  -0.000000   0.000000   0.000000   2.711520   9.846640  -5.931620   0.924768   5.229680  -8.214640  -2.736810  -3.716100  -2.437320  -0.000000   0.000000   0.000000
  0.223024  89.535500  -0.113541  -3.100970 -11.070200   1.717160   1.756500   7.354280   0.332981   3.513520  14.715300   0.441833  -3.180890   1.271860   0.070722  -5.232960   2.554910   7.901070 -10.371700  -0.260773  -1.419220 -59.674400  13.571600 -38.971300  18.464000  13.869900 -43.917300  20.669000  40.135600   3.206120  38.749900  20.005400 -58.706000 -11.040800   0.001436   0.003590  -0.520376  -0.006385   0.005257 -10.057500   1.901380 -10.615500  -8.373760   0.004923   0.001727  -5.861640   0.002632   0.005230  -9.256370   1.055000  -6.475640  -9.316440   0.005367   0.011219  -6.204740   0.005718   0.000739 -11.275700   1.282920  -6.434880 -11.348200  -0.000367   0.009361  -7.557920  -0.006165   0.001127 -15.637300   1.770400  -6.318560 -23.603000   0.001141   0.001902 -15.719600  -0.002241   0.006800   7.123620  -2.813680  15.514800  52.821500  10.343800  36.093000 -19.680600  13.356300  42.087400 -42.791600  33.347100  27.684600 -44.279400  31.471400  69.149300  12.948300  -0.001406  -0.001740   1.474150  -0.003294  -0.002502  16.098300   3.258880  11.161800  13.435200   0.000269  -0.003977   9.404670  -0.004551  -0.003699  14.069800   0.842891   3.387510  14.098900   0.001186  -0.003447   9.389850  -0.004933  -0.005575  16.794400  -1.872870  -6.145460  16.899300   0.006646  -0.004638  11.254900   0.001633  -0.004210  16.943400  -5.610970 -17.756600  26.736100   0.002044  -0.000602  17.806300   0.001929   0.001936   3.343290  14.802300   3.951750   0.928251   0.000533   9.448200  -2.121800  -2.882190   1.726080  -0.000000   0.000000   0.000000   2.690950   9.851280  -5.949260   0.925337   5.221290  -8.174630  -2.715000  -3.725610  -2.405410  -0.000000   0.000000   0.000000
  0.249367  89.527700  -0.085681  -3.111120 -11.045900   1.677660   1.789760   7.414030   0.302152   3.585820  14.833900   0.371832  -3.185120   1.145210   0.063805  -5.247070   2.300620   7.942420 -10.542000  -0.463933  -1.310610 -59.807300  14.545700 -38.447300  17.451500  13.704900 -41.989800  20.632600  39.985000   3.433460  38.824900  19.905500 -58.457200 -11.027000   0.001800   0.003753  -0.513463  -0.006385   0.005419 -10.078900   1.888220 -10.513800  -8.388870   0.004893   0.001643  -5.872220   0.002735   0.005183  -9.242610   1.031160  -6.333750  -9.300630   0.005376   0.011244  -6.194220   0.005656   0.000791 -11.212900   1.249090  -6.294980 -11.282000  -0.000102   0.009504  -7.513780  -0.006178   0.001119 -15.608800   1.728940  -6.178520 -23.553700   0.001253   0.002105 -15.686700  -0.002135   0.006828   7.210190  -2.999660  15.681100  53.320600  10.985500  35.820000 -18.276900  13.954200  39.509100 -42.873600  32.518400  27.796900 -44.038400  31.293600  69.062800  13.125100  -0.001494  -0.001684   1.562550  -0.003348  -0.002499  16.112700   3.214590  10.986500  13.433100   0.000214  -0.003993   9.403230  -0.004705  -0.003667  14.071900   0.794135   3.184780  14.095600   0.001242  -0.003406   9.387680  -0.005023  -0.005562  16.744200  -1.945980  -6.413510  16.858500   0.006559  -0.004631  11.227700   0.001547  -0.004154  16.791300  -5.644740 -18.030000  26.534900   0.002147  -0.000605  17.672300   0.002065   0.001965   3.329200  14.789800   3.947380   0.924975   0.045649   9.455720  -2.111020  -2.945040   1.765690   0.000000   0.000000  -0.000000   2.672960   9.860870  -5.956940   0.925462   5.209200  -8.144890  -2.690810  -3.739340  -2.383950  -0.000000   0.000000   0.000000
